PathFileType	4	(X/Y/Z)	pose_F01_0-79.trc
DataRate	CameraRate	NumFrames	NumMarkers	Units	OrigDataRate	OrigDataStartFrame	OrigNumFrames
30	30	5	21	m	30	59	79
Frame#	Time	CHip			RHip			RKnee			RAnkle			RBigToe			RSmallToe			RHeel			LHip			LKnee			LAnkle			LBigToe			LSmallToe			LHeel			Neck			Nose			RShoulder			RElbow			RWrist			LShoulder			LElbow			LWrist			
		X1	Y1	Z1	X2	Y2	Z2	X3	Y3	Z3	X4	Y4	Z4	X5	Y5	Z5	X6	Y6	Z6	X7	Y7	Z7	X8	Y8	Z8	X9	Y9	Z9	X10	Y10	Z10	X11	Y11	Z11	X12	Y12	Z12	X13	Y13	Z13	X14	Y14	Z14	X15	Y15	Z15	X16	Y16	Z16	X17	Y17	Z17	X18	Y18	Z18	X19	Y19	Z19	X20	Y20	Z20	X21	Y21	Z21	
59	1.9666666666666666	-0.27755927604285346	1.8780834685937462	-0.406018970647076	-0.28638183808025763	1.8738222395674884	-0.34517527646884094	-0.27075117655364117	1.7217378972238617	-0.3126313631676849	-0.2977940380785729	1.5766898409991301	-0.2534783346539583	-0.2720231391861584	1.5415126152071326	-0.2782423521903849	-0.5372292488993985	1.5159202084803927	-0.937970663123349	-0.50717035380672	1.5474378658785297	-0.7658180903385927	-0.26468923342088785	1.8826989448462115	-0.47451172270167047	-0.26192249914596655	1.7371460124271134	-0.5165077662698201	-0.26655683598995833	1.595552767710882	-0.5556770392177008	-0.2374061143472968	1.5657117269555645	-0.6136707706593939	-0.24160541018874063	1.5769205560810382	-0.6320880708768091	-0.2789713528912592	1.587934119711677	-0.5357006351614497	-0.277534247245582	2.0373818761682303	-0.4165613829600636	-0.2591083036257473	2.0950292916331796	-0.4329851550727334	-0.2902459603304015	2.033790449803587	-0.33919667918656143	-0.2641368542847616	2.043173830045627	-0.279967739604609	-0.27280257459087265	2.083376180852201	-0.31720239460927435	-0.26873605858897937	2.0405000788165584	-0.4867628209167756	-0.22215614693999888	2.04197003204267	-0.5803409360304984	-0.24437447496935935	2.0977748063328265	-0.5355188729244397
60	2.0	-0.27638440026610595	1.8764020015195713	-0.4025008799514514	-0.2852080863089039	1.8722219063358276	-0.34159440775775257	-0.27088678240663555	1.7202659267341627	-0.31225333656754756	-0.2977569875285305	1.5765696339185877	-0.25347709787672285	-0.27382460709592377	1.5412428004026755	-0.27626401226608677	-0.5372396858867633	1.515796515265581	-0.9379999510026836	-0.5399809173928777	1.5436217862928894	-0.8520759304529382	-0.2646705629143647	1.8800968437548076	-0.4740108680138165	-0.2617125896311618	1.741895510798843	-0.5129417437567654	-0.2673629706221637	1.5978675230604251	-0.554589922225912	-0.23756290969647353	1.566837411015373	-0.613797790927663	-0.24071841095746335	1.5801679958043653	-0.6292329089302664	-0.2787100459950365	1.58956056449052	-0.5338147578525348	-0.2765229768591447	2.0373758153363486	-0.41338925155635425	-0.2589882203138414	2.097718539471166	-0.4333417087474577	-0.28925295368720644	2.0325265628301232	-0.33595314685339933	-0.2656290144992843	2.042360539136089	-0.2734975452081979	-0.2740157209231029	2.0821257787275966	-0.31249308579509816	-0.2677282823499741	2.040456524909159	-0.48373755924833345	-0.22298068372662838	2.042221932999221	-0.5833240453064301	-0.24433289627320126	2.096637259653071	-0.5351024418810088
61	2.033333333333333	-0.2784221784335766	1.8752917033619654	-0.4001608997044954	-0.2854061552627585	1.871100783308756	-0.3413146844967485	-0.2709159994238156	1.7230098535146263	-0.3125335105477669	-0.29810316516735835	1.5787338256964272	-0.25329536744615677	-0.27452659604418306	1.5412515066735044	-0.27539486605930735	-0.5412641924326678	1.5175264100771553	-0.9307467854734991	-0.31051892602785597	1.5685401190471995	-0.2476996599085736	-0.26372620291533433	1.880027952358743	-0.47084681046045535	-0.26044415446856267	1.7415489010649454	-0.5100231067231917	-0.2674522593699667	1.5984825209506721	-0.5545815575534211	-0.23757456561180842	1.566936673698079	-0.6136811907245564	-0.2410225848042005	1.579127876039821	-0.6286843946234574	-0.2768659076248168	1.590165154671567	-0.5361152647398292	-0.28023248837865833	2.037334957939933	-0.4091601066006546	-0.25981742583220147	2.0986834382389477	-0.4280907050997646	-0.28995090236732446	2.0323660680943028	-0.33073752986887417	-0.267121174713807	2.0415472482265513	-0.26702735081178675	-0.27522886725533313	2.0808753766029917	-0.30778377698092196	-0.26876336503732035	2.04051737357736	-0.4866686700642357	-0.2230317219949242	2.042373502100777	-0.5833244863198633	-0.24442151950486504	2.095634621792716	-0.5351975767712951
62	2.066666666666667	-0.2781843549029355	1.8774944093657941	-0.4003988636181012	-0.28510123794851744	1.873332086670903	-0.3415675575474841	-0.2723901671566184	1.71928312091569	-0.31035616587426273	-0.29789641849651194	1.5773608961243406	-0.2533291587445887	-0.2752285849924423	1.5412602129443336	-0.27452571985252794	-0.5415282257313061	1.5164054808083254	-0.9305886529357899	-0.36785489615182543	1.5627881090331912	-0.3987228082439449	-0.2661274468655781	1.8820196262411666	-0.4720096824472415	-0.26001853961458765	1.7402949513783819	-0.5101243688329085	-0.2671438185572023	1.5995991183330487	-0.555082067236802	-0.23753056419994603	1.5667160674391014	-0.6137404549653734	-0.24082941013594417	1.580748628462669	-0.629213958538807	-0.2767835286727898	1.5900097918708405	-0.5361122876294301	-0.2782517026189013	2.038493118202981	-0.4110388415158073	-0.25957327210620496	2.103002801040928	-0.42834576348667297	-0.2887214725179188	2.0331892482790446	-0.32751580113026324	-0.2686133349283297	2.0407339573170136	-0.26055715641537563	-0.2764420135875634	2.079624974478387	-0.3030744681667458	-0.2676486639763414	2.0429760215635504	-0.4841080976076763	-0.2239601938225365	2.0410575598036225	-0.5860551700771981	-0.2445306798550611	2.095066557765552	-0.5352222999970312
63	2.1	-0.2779026201724439	1.8811175743753517	-0.4010559443629873	-0.28497006693239685	1.8784620356980903	-0.3425159347420923	-0.2707415322477985	1.7240528237396557	-0.312867573578834	-0.2976896718256655	1.575987966552254	-0.25336295004302073	-0.2734906132932239	1.5393322618153373	-0.27632608367494493	-0.5394539369948275	1.5151952924390168	-0.934370596579029	-0.42519086627579494	1.5570360990191832	-0.5497459565793162	-0.2641927715083071	1.8862719076961192	-0.4747826485456532	-0.2623272777495482	1.7401040035239292	-0.5076017417621158	-0.2677872061605655	1.597391094961527	-0.554009784263155	-0.23733573011494055	1.5655117430638832	-0.6141079591700594	-0.24059383190334732	1.5793809400518155	-0.6295152762297619	-0.2789812634406493	1.5909968522467546	-0.5337097708198908	-0.28087580779525906	2.0409280786608788	-0.4042711750708659	-0.25950934954438043	2.1053731352095455	-0.42876974973639626	-0.29052048158364285	2.0349545223312457	-0.32594937234665255	-0.27010549514285237	2.039920666407476	-0.2540869620189645	-0.2776551599197936	2.0783745723537823	-0.29836515935256963	-0.26760439058233665	2.0440794144110046	-0.4839419980531011	-0.2239430473345667	2.0410937951514043	-0.5860773606448526	-0.24531500151062308	2.0932513459088105	-0.5370124747569803
